<svg xmlns="http://www.w3.org/2000/svg" width="276" height="45.435" viewBox="0 0 276 45.435"><g transform="translate(-40.775 -353.36)"><path d="M41.03,382.589c-.264-1.111-.346-27.015-.134-29.069a5.88,5.88,0,0,1,.888-.13c3.518-.005,7.038-.08,10.553.029A15.552,15.552,0,0,1,62.6,357.477a12.4,12.4,0,0,1,3.909,6.914,16.312,16.312,0,0,1-.123,7.385,13.2,13.2,0,0,1-5.28,7.69,16.457,16.457,0,0,1-7.58,2.894,26.47,26.47,0,0,1-2.921.219c-2.74.029-5.482.01-8.222.01Zm4.511-4.074a9.205,9.205,0,0,0,.993.086c1.547-.05,3.093-.154,4.639-.167a12.027,12.027,0,0,0,4.865-1.081,9.292,9.292,0,0,0,5.2-5.394,12.31,12.31,0,0,0,.44-6.607,8.9,8.9,0,0,0-3.732-5.808,12.93,12.93,0,0,0-7.028-2.166c-1.467-.076-2.941-.019-4.412-.01-.313,0-.626.055-.96.087Z" fill="#00456a"/><path d="M373.017,388.736v12.017h-3.742c-.226-.908-.293-27.352-.073-28.951a14.439,14.439,0,0,1,3.249-.082c.4.007.535.331.541.69.01.6,0,1.2,0,2.075a8.062,8.062,0,0,1,5.217-3.163,9.373,9.373,0,0,1,8.09,2.2,9.584,9.584,0,0,1,3.2,7.391,12.9,12.9,0,0,1-.736,4.794c-1.094,2.933-4.49,5.931-8.173,5.823a12.173,12.173,0,0,1-3.284-.247,8.4,8.4,0,0,1-4.018-2.626Zm6.193-.616c2.973.324,5.245-1.96,5.98-4.417a7.642,7.642,0,0,0,.324-3.259c-.34-2.422-1.339-4.465-3.8-5.406a6.307,6.307,0,0,0-5.653.344,7.111,7.111,0,0,0-3.047,7.859A6.2,6.2,0,0,0,379.21,388.12Z" transform="translate(-160.353 -8.699)" fill="#c2a966"/><path d="M217.3,369.879V382.3a32.69,32.69,0,0,1-4.081.1c-.035-.446-.087-.8-.087-1.151q-.007-13.221,0-26.442c0-.2,0-.408.007-.612a.644.644,0,0,1,.7-.684c.286-.011.572-.008.859-.008,2.29,0,4.583-.067,6.869.022a21.172,21.172,0,0,1,5.067.641c2.8.8,4.858,2.382,5.449,5.326.6,3.008.3,5.862-2.229,8.045a10.351,10.351,0,0,1-5.257,2.121,38.193,38.193,0,0,1-5.741.22C218.405,369.887,217.959,369.879,217.3,369.879Zm.073-3.771a2.125,2.125,0,0,0,.377.1c1.472.008,2.945-.011,4.417.024a8.149,8.149,0,0,0,2.756-.469A4.039,4.039,0,0,0,228.1,361.3a3.615,3.615,0,0,0-2.118-3.317,9.783,9.783,0,0,0-2.105-.6,28.234,28.234,0,0,0-5.616-.236,7.254,7.254,0,0,0-.884.088Z" transform="translate(-84.187 -0.057)" fill="#c2a966"/><path d="M179.885,378.465c.078-2.6-1.438-3.766-3.738-3.984a7.616,7.616,0,0,0-5.491,1.681c-.192.148-.373.311-.65.542a27.042,27.042,0,0,1-2.4-2.676,9.8,9.8,0,0,1,1.043-.983,12.359,12.359,0,0,1,5.425-2.1,12.186,12.186,0,0,1,4.843.285,6.689,6.689,0,0,1,5.029,5.294,12.038,12.038,0,0,1,.261,2.664c.033,2.981,0,5.962.028,8.943.007.928.1,1.856.166,2.926a25.171,25.171,0,0,1-3.508.03c-.392-.013-.524-.324-.581-.677-.074-.46-.17-.917-.292-1.563a7.285,7.285,0,0,1-4.665,2.627c-2.947.4-5.594-.163-7.67-2.511-1.537-1.739-1.813-6.281,1.043-8.062a11.525,11.525,0,0,1,4.894-1.812c1.822-.2,3.653-.31,5.48-.471A7.144,7.144,0,0,0,179.885,378.465Zm.015,3.609a19.031,19.031,0,0,0-6.269.477,3.97,3.97,0,0,0-1.981,1.156,2.232,2.232,0,0,0-.45,2.49,3.515,3.515,0,0,0,3.547,1.9C178.14,387.806,180,386.08,179.9,382.074Z" transform="translate(-61.433 -8.53)" fill="#00456a"/><path d="M111.491,378.55a3.036,3.036,0,0,0-1.668-3.532,6.245,6.245,0,0,0-5.448,0,27.616,27.616,0,0,0-2.77,1.6l-2.213-2.539a4.3,4.3,0,0,1,.5-.653,12.353,12.353,0,0,1,11.309-2.024,6.772,6.772,0,0,1,4.6,6.182c.056,2,.025,4,.03,6,0,1.224-.038,2.45.012,3.673s.191,2.418.3,3.748a24.009,24.009,0,0,1-3.862.073l-.545-2.058c-.575.452-1.115.95-1.723,1.34a9.113,9.113,0,0,1-9.5-.272,5.035,5.035,0,0,1-2.184-4.046,6.827,6.827,0,0,1,.3-2.893,6.055,6.055,0,0,1,3.516-3.223,16.082,16.082,0,0,1,5.246-1.107C108.74,378.748,110.08,378.643,111.491,378.55Zm-.031,3.514a21.721,21.721,0,0,0-4.209.086,6.839,6.839,0,0,0-2.91.837,4.174,4.174,0,0,0-1.12.911,2.457,2.457,0,0,0,1.13,3.745,6.409,6.409,0,0,0,3.227.3A4.917,4.917,0,0,0,111.46,382.063Z" transform="translate(-28.108 -8.517)" fill="#00456a"/><path d="M270.125,390.982a16.939,16.939,0,0,1-3.316.017c-.162-.694-.318-1.356-.51-2.175a4.921,4.921,0,0,0-.75.559c-2.589,2.884-8.277,2.854-10.971.372a4.452,4.452,0,0,1-1.641-3.416,7.873,7.873,0,0,1,.278-2.9,4.767,4.767,0,0,1,1.687-2.194,11.767,11.767,0,0,1,5.965-1.953c1.7-.148,3.41-.238,5.128-.356a3.188,3.188,0,0,0-2.053-4.046,7.5,7.5,0,0,0-7.248,1.274c-.163.118-.311.256-.514.425-.956-.569-1.37-1.561-2.181-2.376a14.226,14.226,0,0,1,1.161-1.045,11.411,11.411,0,0,1,6.324-1.965,9.53,9.53,0,0,1,4.757.872,6.336,6.336,0,0,1,3.64,5.158A34.579,34.579,0,0,1,270.1,381c.036,2.489.018,4.979.022,7.468C270.126,389.278,270.125,390.084,270.125,390.982Zm-4-8.924a18.42,18.42,0,0,0-5.508.277,14.6,14.6,0,0,0-1.412.381,3.607,3.607,0,0,0-1.979,1.555,2.558,2.558,0,0,0,1.377,3.711,6.222,6.222,0,0,0,4.067.146,4.134,4.134,0,0,0,2.442-1.681A5.631,5.631,0,0,0,266.123,382.058Z" transform="translate(-103.628 -8.71)" fill="#c2a966"/><path d="M427.273,391.529a8.793,8.793,0,0,1-5.986-1.735,9.452,9.452,0,0,1-4.221-7.865,10.812,10.812,0,0,1,1.051-5.446,9.886,9.886,0,0,1,6.749-5.028,11.114,11.114,0,0,1,5.674.164,9.5,9.5,0,0,1,6.615,5.85,10.08,10.08,0,0,1-.987,9.68,9.308,9.308,0,0,1-7.787,4.38C428.052,391.535,427.726,391.529,427.273,391.529Zm.1-3.412a6.006,6.006,0,0,0,4.7-1.9,7.739,7.739,0,0,0,.694-8.693,6.975,6.975,0,0,0-1.254-1.466,5.888,5.888,0,0,0-5-1.425,5.48,5.48,0,0,0-4.248,2.54,7.692,7.692,0,0,0-.912,6.427C422.056,386.138,424.429,388.432,427.372,388.117Z" transform="translate(-183.798 -8.696)" fill="#c2a966"/><path d="M309.426,374.259a8.423,8.423,0,0,1-2.549,2.3c-.56-.451-1.1-.938-1.689-1.348a5.081,5.081,0,0,0-5.009-.424,2.02,2.02,0,0,0-1.378,1.859,1.875,1.875,0,0,0,1.189,1.845,21.144,21.144,0,0,0,3,1.006,14.058,14.058,0,0,1,4.842,1.951,3.978,3.978,0,0,1,1.751,3.32,9.459,9.459,0,0,1-.142,2.3,5.424,5.424,0,0,1-4.166,4.067,11.147,11.147,0,0,1-9.386-1.338,19.9,19.9,0,0,1-1.912-1.694l2.907-2.488a6.6,6.6,0,0,0,3.73,2.534,5.481,5.481,0,0,0,3.477-.17,2.432,2.432,0,0,0,1.534-2.975,2.212,2.212,0,0,0-1.418-1.424c-.676-.276-1.388-.466-2.091-.675a22.61,22.61,0,0,1-4.392-1.465,4.984,4.984,0,0,1-2.485-5.692A5.529,5.529,0,0,1,299.1,371.7a10.094,10.094,0,0,1,8.055.6A5.425,5.425,0,0,1,309.426,374.259Z" transform="translate(-123.675 -8.68)" fill="#c2a966"/><path d="M345.065,374.445,342.4,376.7c-.373-.346-.7-.638-1.011-.941a5.048,5.048,0,0,0-6-.766,1.95,1.95,0,0,0-.123,3.342,9.43,9.43,0,0,0,3.191,1.173,13.542,13.542,0,0,1,4.337,1.576,4.793,4.793,0,0,1,2.277,5.325,5.468,5.468,0,0,1-4.443,4.773,11,11,0,0,1-8.754-1.087,4.026,4.026,0,0,1-2.079-2.029,11,11,0,0,1,2.591-2.362c.385.373.759.788,1.185,1.14a5.709,5.709,0,0,0,5.707,1.216,3.621,3.621,0,0,0,1.4-.927,1.947,1.947,0,0,0-.61-3.316,38.451,38.451,0,0,0-4.176-1.369,10.794,10.794,0,0,1-3.359-1.429,4.1,4.1,0,0,1-1.785-3.308c-.009-.2.015-.41-.006-.612-.271-2.667,1.57-4.586,3.9-5.385a10.368,10.368,0,0,1,7.966.523A6.486,6.486,0,0,1,345.065,374.445Z" transform="translate(-141.167 -8.689)" fill="#c2a966"/><path d="M538.815,374.453c-1.181.61-1.723,1.744-2.9,2.125-.278-.264-.544-.513-.8-.765a5.149,5.149,0,0,0-5.888-.907,2.066,2.066,0,0,0-1.257,1.813,1.921,1.921,0,0,0,1.317,1.889c.915.342,1.844.656,2.787.906a18.808,18.808,0,0,1,4.029,1.4,4.787,4.787,0,0,1,2.658,5.112,5.711,5.711,0,0,1-3,4.594,4.67,4.67,0,0,1-1.463.6,12.827,12.827,0,0,1-7.8-.539,8.87,8.87,0,0,1-3.239-2.658l2.774-2.351a9.287,9.287,0,0,0,2.961,2.255,5.511,5.511,0,0,0,4.168.078,3.486,3.486,0,0,0,1.414-1.113,2,2,0,0,0-.824-3.071c-1.347-.56-2.786-.9-4.17-1.377a21.625,21.625,0,0,1-2.947-1.159c-2.428-1.262-2.869-4.383-1.833-6.6A5.381,5.381,0,0,1,528.1,371.8a10.205,10.205,0,0,1,8.394.607A8.572,8.572,0,0,1,538.815,374.453Z" transform="translate(-235.662 -8.702)" fill="#c2a966"/><path d="M145.168,370.265c-.026.392-.059.671-.059.95,0,2.856-.013,5.712.008,8.568a5.944,5.944,0,0,0,.224,1.561,1.827,1.827,0,0,0,2.037,1.559,24.277,24.277,0,0,0,2.5-.3,8.037,8.037,0,0,1,.348,3.437,10.869,10.869,0,0,1-1.521.453,9.646,9.646,0,0,1-4.243-.119,4.97,4.97,0,0,1-3.557-4.63c-.061-.894-.031-1.794-.032-2.691q-.005-3.733,0-7.466v-1.335h-3.564a14.352,14.352,0,0,1-.046-3.478l3.421-.117a7.9,7.9,0,0,0,.181-2.71c.036-.887.008-1.775.008-2.761,1.427-.128,2.717-.057,4.03-.06a7.244,7.244,0,0,1,.194,2.7c.04.888.009,1.779.009,2.759,1.719.288,3.355-.015,5.087.215a16.9,16.9,0,0,1-.008,3.342C148.537,370.318,146.908,370.128,145.168,370.265Z" transform="translate(-47.089 -3.785)" fill="#00456a"/><path d="M502.956,370.413v2.3c0,2.569,0,5.138.005,7.707a4.411,4.411,0,0,0,.107,1.208,2.638,2.638,0,0,0,3.093,1.746c.515-.1,1.02-.249,1.63-.4.068,1.059.131,2.053.2,3.18a8.627,8.627,0,0,1-3.859.63,6.684,6.684,0,0,1-1.077-.2,4.291,4.291,0,0,1-3.6-3.245,12.455,12.455,0,0,1-.42-2.628c-.052-2.976-.02-5.953-.02-8.93v-1.3l-3.5-.131a10.565,10.565,0,0,1-.154-3.176c1.158-.365,2.359.019,3.607-.267.119-1.7-.007-3.4.084-5.245a26.953,26.953,0,0,1,3.888.031V366.9c1.727.256,3.359-.013,5.019.18a9.158,9.158,0,0,1,.1,2.785c-.019.472-.418.543-.812.543l-2.942,0Z" transform="translate(-222.022 -4.026)" fill="#c2a966"/><path d="M467.564,371.744h3.447c.613.742.346,1.653.534,2.667,1.859-2.446,4.147-3.61,7.216-3.1a16.506,16.506,0,0,1-.017,3.658c-.543-.038-.979-.065-1.414-.1a5.244,5.244,0,0,0-5.627,5.4q-.006,4.646,0,9.292c0,.439,0,.879,0,1.374a26.327,26.327,0,0,1-3.863.114c-.026-.508-.066-.939-.067-1.369-.005-4.279.01-8.559-.012-12.838-.006-1.052-.14-2.1-.189-3.155C467.541,373.084,467.564,372.479,467.564,371.744Z" transform="translate(-208.459 -8.71)" fill="#c2a966"/><path d="M492.148,430.539c-.055-.182-.135-.3-.117-.407q.869-5.162,1.76-10.319a3.365,3.365,0,0,1,.294-.661,20.38,20.38,0,0,1,5.777.3,4.528,4.528,0,0,1,3.364,5.564c-.648,3.477-2.946,5.347-6.586,5.589-1.22.081-2.45.018-3.675.01C492.689,430.612,492.414,430.564,492.148,430.539Zm3.659-9.392-1.308,7.469a17.533,17.533,0,0,0,2.711-.021c2.86-.477,4.091-2.731,3.571-5.386a2.354,2.354,0,0,0-1.443-1.707A6.73,6.73,0,0,0,495.806,421.147Z" transform="translate(-220.413 -32.106)" fill="#00456a"/><path d="M547.175,428.985c.059-1.109-.1-1.37-.86-1.409a3.935,3.935,0,0,0-1.194.175c-.428.115-.835.3-1.381.509l-.648-1.208a4.685,4.685,0,0,1,5.267-.7,2.254,2.254,0,0,1,1.089,2.408c-.229,1.523-.5,3.041-.745,4.561a.6.6,0,0,1-.669.57c-.535-.046-1.063-.162-1.835-.288a3.669,3.669,0,0,1-2.678.332,2.181,2.181,0,0,1-1-3.741,4.477,4.477,0,0,1,2.875-1.2C545.952,428.943,546.521,428.985,547.175,428.985Zm-.259,1.589a3.275,3.275,0,0,0-2.451.272,1.175,1.175,0,0,0-.455.879c-.01.371.3.62.723.687A1.85,1.85,0,0,0,546.916,430.574Z" transform="translate(-244.727 -35.398)" fill="#00456a"/><path d="M520.241,428.981c.09-1.1-.056-1.356-.827-1.4a3.809,3.809,0,0,0-1.2.167c-.429.115-.836.306-1.334.5-.128-.182-.276-.363-.39-.563s-.206-.436-.3-.635a4.623,4.623,0,0,1,5.24-.689,2.03,2.03,0,0,1,1.1,2.042c-.239,1.688-.557,3.365-.85,5.045a1.143,1.143,0,0,1-.168.314c-1.141.238-1.141.238-2.022-.24a4.088,4.088,0,0,1-2.884.421,2.149,2.149,0,0,1-1.11-3.635,4.355,4.355,0,0,1,2.955-1.309C519.018,428.937,519.591,428.981,520.241,428.981Zm-.181,1.552a4.337,4.337,0,0,0-2.37.219c-.547.231-.831.631-.693,1a1.023,1.023,0,0,0,1.058.667C519.1,432.441,519.579,432.026,520.06,430.532Z" transform="translate(-231.568 -35.395)" fill="#00456a"/><path d="M392.469,419.336c-.177,1.847-.046,1.766-1.908,1.759-.485,0-.971,0-1.546,0-.757,3.157-1.095,6.34-1.806,9.472-.792.04-1.466.25-2.152-.226l1.593-9.227h-3.08c-.014-.46-.035-.808-.035-1.155a.731.731,0,0,1,.823-.832c2.575.009,5.151.014,7.726.03C392.194,419.157,392.3,419.255,392.469,419.336Z" transform="translate(-167.421 -32.124)" fill="#00456a"/><path d="M473.235,433.862h-1.891c-.272-1.1.19-2.064.282-3.055.048-.522.214-1.032.306-1.551a1.34,1.34,0,0,0-.467-1.317,1.632,1.632,0,0,0-1.609.153,2.786,2.786,0,0,0-1.037,1.872c-.172,1-.333,2-.521,3a7.341,7.341,0,0,1-.3.918h-1.821c-.208-1.369.317-2.6.462-3.864s.475-2.536.715-3.761c1.467-.3,1.547-.282,2,.3a7.859,7.859,0,0,1,2.086-.656c2.023-.038,2.994,1.233,2.707,3.154-.162,1.081-.419,2.148-.627,3.223C473.419,432.78,473.336,433.291,473.235,433.862Z" transform="translate(-207.762 -35.429)" fill="#00456a"/><path d="M414.779,433.964c-1.5.263-1.508.261-2-.352a12.376,12.376,0,0,1-1.83.694,2.357,2.357,0,0,1-2.93-2.4c.118-1.692.483-3.368.745-5.049a.635.635,0,0,1,.67-.584c.441-.012.884,0,1.373,0a6.444,6.444,0,0,1-.227,2.45c-.094.764-.27,1.518-.357,2.283a1.2,1.2,0,0,0,.557,1.369,1.479,1.479,0,0,0,1.674-.38,4,4,0,0,0,.947-2.451c.2-1.029.392-2.059.6-3.173h2.1C415.66,428.932,415.223,431.426,414.779,433.964Z" transform="translate(-179.379 -35.612)" fill="#00456a"/><path d="M424.21,432.558l1.335-.975a10.552,10.552,0,0,0,1.386.711,1.923,1.923,0,0,0,1.072.055.99.99,0,0,0,.639-.6,1.042,1.042,0,0,0-.41-.785,4.988,4.988,0,0,0-1.006-.425,5.313,5.313,0,0,1-1.181-.613,1.94,1.94,0,0,1-.375-2.638,3.756,3.756,0,0,1,5.944.056l-1.451.929c-.551-.413-1.092-.941-1.851-.682a4.158,4.158,0,0,0-.831.513,1.143,1.143,0,0,0,.894.922,7.343,7.343,0,0,1,1.259.475,2.268,2.268,0,0,1,.456,3.8A4.161,4.161,0,0,1,424.21,432.558Z" transform="translate(-187.288 -35.41)" fill="#00456a"/><path d="M441.281,422.145h1.944c-.037.7-.07,1.291-.105,1.96l1.483.271c-.083.506-.162.994-.249,1.528l-1.619.17c-.244,1.163-.5,2.343-.738,3.525a.657.657,0,0,0,.523.834,4.293,4.293,0,0,0,.82.066c.289.68.289.68-.023,1.489a3.092,3.092,0,0,1-2.1.151c-.89-.287-1.334-.713-1.286-1.664.055-1.09.253-2.172.39-3.257.044-.351.091-.7.143-1.106l-1.235-.234c.108-.525.2-.985.308-1.5l1.251-.22C440.945,423.516,441.107,422.857,441.281,422.145Z" transform="translate(-194.624 -33.598)" fill="#00456a"/><path d="M535.889,430.522c.256,1.382-.024,1.754-1.322,1.761-1.518.008-2.333-.757-2.211-2.266.1-1.292.387-2.57.6-3.92l-1.01-.2c-.165-1.48-.142-1.512,1.259-1.73l.556-2.019h1.955c-.065.682-.126,1.306-.192,1.993l1.287.176c.428,1.4.293,1.554-1.661,1.783-.194,1.035-.448,2.1-.579,3.175s0,1.153,1.1,1.161A.7.7,0,0,1,535.889,430.522Z" transform="translate(-239.878 -33.601)" fill="#00456a"/><path d="M573.443,366.822V364.21c-.792.712-.833,1.737-1.4,2.5a.713.713,0,0,1-1.022-.538,11.746,11.746,0,0,0-.777-1.928c-.392.767-.056,1.627-.337,2.461h-1.075c-.024-1.489-.022-2.944,0-4.4a.582.582,0,0,1,.612-.626c.47-.011,1.023-.181,1.276.427.156.375.251.774.39,1.157.15.415.32.823.534,1.371a6.112,6.112,0,0,0,1.038-2.246c.153-.433.332-.7.832-.733.918-.057,1.162.131,1.173,1.078.015,1.262,0,2.524,0,3.916Z" transform="translate(-257.918 -4.05)" fill="#c2a966"/><path d="M398.149,433.926l-2.119-.115c.468-2.623.907-5.082,1.351-7.571a2.049,2.049,0,0,1,2.2.235c.7-.274,1.314-.881,2.158-.54a1.879,1.879,0,0,1-.175,1.724.709.709,0,0,1-.216.1c-1.686.152-2.1.481-2.462,2.148C398.61,431.174,398.415,432.457,398.149,433.926Z" transform="translate(-173.523 -35.399)" fill="#00456a"/><path d="M459.944,434.133h-1.762a26.137,26.137,0,0,1,1.2-7.716h1.879C460.981,429.076,460.457,431.586,459.944,434.133Z" transform="translate(-203.862 -35.685)" fill="#00456a"/><path d="M562.425,362.991v3.731l-1.132.1v-3.778a4.029,4.029,0,0,1-1.017-.205.945.945,0,0,1-.458-.594c-.024-.143.262-.48.419-.487,1.06-.044,2.125-.045,3.185,0,.16.006.448.337.427.48a.95.95,0,0,1-.449.6A3.346,3.346,0,0,1,562.425,362.991Z" transform="translate(-253.524 -4.084)" fill="#c2a966"/><path d="M559.889,439.264a1.093,1.093,0,0,1-1.2-1.222,1.153,1.153,0,0,1,1.291-1.273,1.1,1.1,0,0,1,1.2,1.227A1.137,1.137,0,0,1,559.889,439.264Z" transform="translate(-252.975 -40.741)" fill="#00456a"/><path d="M463.23,420.293a1.35,1.35,0,0,1-1.264,1.245,1.167,1.167,0,0,1-1.188-1.371,1.242,1.242,0,0,1,1.375-1.081A1.076,1.076,0,0,1,463.23,420.293Z" transform="translate(-205.146 -32.103)" fill="#00456a"/></g></svg>